<svg width="392" height="800" viewBox="0 0 392 800" fill="none" xmlns="http://www.w3.org/2000/svg">
<path d="M296.003 0H95.9857C42.9665 0 0 58.9726 0 111.992V703.997C0 756.999 42.9665 800 95.9857 800H296.003C349.005 800 392.005 757.016 392.005 703.997V111.992C391.971 58.9726 349.005 0 296.003 0ZM375.183 241.334V439.752L328.763 445.722V363.973L375.183 241.334ZM350.825 183.245C333.543 249.583 313.08 327.998 313.08 327.998H78.891L41.0954 183.245C41.0954 183.245 192.21 131.91 350.825 183.245ZM63.7523 369.331V445.739L17.3159 439.803V246.675L63.7523 369.331ZM17.3159 645.314V469.11L63.7523 474.945V614.356L17.3159 645.314ZM43.8 695.39L81.5275 638.646H315.768L353.513 695.39H43.8ZM328.763 609.032V475.132L375.183 469.093V640.007L328.763 609.032Z" fill="black"/>
</svg>
